<svg viewBox="0 0 512 512" width="512" height="512" role="img" xmlns="http://www.w3.org/2000/svg">
<title>Mythos chess engine logo</title>
<desc>A mythic app-icon logo: a cosmic star-filled chess knight with a glowing gold outline and golden Pegasus wings, over a two-by-two amethyst chessboard with neural constellations, framed by a golden laurel wreath and a crescent moon.</desc>
<defs>
<linearGradient id="sqTL" x1="0" y1="0" x2="1" y2="1">
<stop offset="0%" stop-color="#c2ade9"/>
<stop offset="100%" stop-color="#9c81d0"/>
</linearGradient>
<linearGradient id="sqTR" x1="0" y1="0" x2="1" y2="1">
<stop offset="0%" stop-color="#3a2465"/>
<stop offset="100%" stop-color="#241243"/>
</linearGradient>
<linearGradient id="sqBL" x1="0" y1="0" x2="1" y2="1">
<stop offset="0%" stop-color="#402a6e"/>
<stop offset="100%" stop-color="#2a164d"/>
</linearGradient>
<linearGradient id="sqBR" x1="0" y1="0" x2="1" y2="1">
<stop offset="0%" stop-color="#8a6fc2"/>
<stop offset="100%" stop-color="#5f4596"/>
</linearGradient>
<linearGradient id="kn" x1="0" y1="0" x2="0" y2="1">
<stop offset="0%" stop-color="#2c1656"/>
<stop offset="55%" stop-color="#241245"/>
<stop offset="100%" stop-color="#170b33"/>
</linearGradient>
<linearGradient id="wing" x1="0" y1="0" x2="0" y2="1">
<stop offset="0%" stop-color="#fbe9a9"/>
<stop offset="55%" stop-color="#d8a63c"/>
<stop offset="100%" stop-color="#a3781f"/>
</linearGradient>
<radialGradient id="vig" cx="45%" cy="40%" r="75%">
<stop offset="55%" stop-color="#170b33" stop-opacity="0"/>
<stop offset="100%" stop-color="#170b33" stop-opacity="0.55"/>
</radialGradient>
<clipPath id="sq"><rect x="16" y="16" width="480" height="480" rx="110"/></clipPath>
</defs>

<g clip-path="url(#sq)">
<rect x="16" y="16" width="240" height="240" fill="url(#sqTL)"/>
<rect x="256" y="16" width="240" height="240" fill="url(#sqTR)"/>
<rect x="16" y="256" width="240" height="240" fill="url(#sqBL)"/>
<rect x="256" y="256" width="240" height="240" fill="url(#sqBR)"/>

<g stroke="#e9dcff" stroke-width="1" stroke-opacity="0.32" fill="#e9dcff" fill-opacity="0.45">
<line x1="300" y1="50" x2="336" y2="84"/><line x1="336" y1="84" x2="382" y2="56"/>
<line x1="382" y1="56" x2="420" y2="100"/><line x1="420" y1="100" x2="454" y2="48"/>
<line x1="382" y1="56" x2="454" y2="48"/>
<circle cx="300" cy="50" r="2.2"/><circle cx="336" cy="84" r="1.7"/><circle cx="382" cy="56" r="2.4"/>
<circle cx="420" cy="100" r="1.8"/><circle cx="454" cy="48" r="2"/>
</g>
<g stroke="#e9dcff" stroke-width="1" stroke-opacity="0.32" fill="#e9dcff" fill-opacity="0.45">
<line x1="58" y1="292" x2="100" y2="326"/><line x1="100" y1="326" x2="66" y2="376"/>
<line x1="66" y1="376" x2="118" y2="408"/><line x1="100" y1="326" x2="146" y2="302"/>
<circle cx="58" cy="292" r="2.2"/><circle cx="100" cy="326" r="1.7"/><circle cx="66" cy="376" r="2.4"/>
<circle cx="118" cy="408" r="1.8"/><circle cx="146" cy="302" r="1.6"/>
</g>

<path d="M 100,70 A 22,22 0 1 0 100,114 A 17,17 0 0 1 100,70 Z" fill="#dcae45" opacity="0.8"/>
<path d="M430,404 L431.6,410 L437,411.5 L431.6,413 L430,419 L428.4,413 L423,411.5 L428.4,410 Z" fill="#f6d876" opacity="0.55"/>

<rect x="16" y="16" width="480" height="480" fill="url(#vig)"/>

<g fill="url(#wing)" stroke="#2a1150" stroke-width="1" stroke-linejoin="round">
<path d="M 392,205 C 398,150 425,105 472,78 C 458,122 434,170 410,212 Z" opacity="1"/>
<path d="M 396,215 C 410,172 440,140 482,120 C 466,156 438,190 416,222 Z" opacity="0.95"/>
<path d="M 400,226 C 420,196 450,176 488,168 C 470,196 442,216 420,234 Z" opacity="0.9"/>
<path d="M 403,237 C 426,222 452,212 490,212 C 472,230 444,242 424,248 Z" opacity="0.85"/>
</g>

<g transform="rotate(-8 256 266)">
<g transform="translate(28,52) scale(10)">
<g transform="translate(0,0.3)" stroke-linecap="round" stroke-linejoin="round">
<g fill="none" stroke="#f6d876" stroke-width="2.2" stroke-opacity="0.22">
<path d="M 22,10 C 32.5,11 38.5,18 38,39 L 15,39 C 15,30 25,32.5 23,18"/>
<path d="M 24,18 C 24.38,20.91 18.45,25.37 16,27 C 13,29 13.18,31.34 11,31 C 9.958,30.06 12.41,27.96 11,28 C 10,28 11.19,29.23 10,30 C 9,30 5.997,31 6,26 C 6,24 12,14 12,14 C 12,14 13.89,12.1 14,10.5 C 13.27,9.506 13.5,8.5 13.5,7.5 C 14.5,6.5 16.5,10 16.5,10 L 18.5,10 C 18.5,10 19.28,8.008 21,7 C 22,7 22,10 22,10"/>
</g>
<g fill="url(#kn)" stroke="#f0c75a" stroke-width="0.85">
<path d="M 22,10 C 32.5,11 38.5,18 38,39 L 15,39 C 15,30 25,32.5 23,18"/>
<path d="M 24,18 C 24.38,20.91 18.45,25.37 16,27 C 13,29 13.18,31.34 11,31 C 9.958,30.06 12.41,27.96 11,28 C 10,28 11.19,29.23 10,30 C 9,30 5.997,31 6,26 C 6,24 12,14 12,14 C 12,14 13.89,12.1 14,10.5 C 13.27,9.506 13.5,8.5 13.5,7.5 C 14.5,6.5 16.5,10 16.5,10 L 18.5,10 C 18.5,10 19.28,8.008 21,7 C 22,7 22,10 22,10"/>
</g>
<g stroke="#efe3ff" stroke-width="0.18" stroke-opacity="0.5" fill="#efe3ff">
<line x1="20" y1="14" x2="26" y2="17"/><line x1="26" y1="17" x2="31" y2="22"/>
<line x1="24" y1="25" x2="29" y2="30"/>
<circle cx="20" cy="14" r="0.6" fill-opacity="0.95"/><circle cx="26" cy="17" r="0.45" fill-opacity="0.8"/>
<circle cx="31" cy="22" r="0.7" fill-opacity="0.95"/><circle cx="24" cy="25" r="0.5" fill-opacity="0.8"/>
<circle cx="29" cy="30" r="0.6" fill-opacity="0.9"/><circle cx="21" cy="33" r="0.45" fill-opacity="0.75"/>
<circle cx="33" cy="34" r="0.55" fill-opacity="0.85"/>
</g>
<circle cx="9.3" cy="25.8" r="2.2" fill="#f6d876" opacity="0.35"/>
<circle cx="9.3" cy="25.8" r="1.0" fill="#f6d876"/>
</g>
</g>
</g>

<g fill="#dcae45" stroke="#8a6414" stroke-width="1">
<path d="M 108,424 Q 150,464 244,474" fill="none" stroke="#b08424" stroke-width="3.5"/>
<path d="M 404,424 Q 362,464 268,474" fill="none" stroke="#b08424" stroke-width="3.5"/>
<ellipse cx="118" cy="430" rx="16" ry="6" transform="rotate(-55 118 430)"/>
<ellipse cx="138" cy="447" rx="16" ry="6" transform="rotate(-35 138 447)"/>
<ellipse cx="163" cy="459" rx="16" ry="6" transform="rotate(-20 163 459)"/>
<ellipse cx="192" cy="467" rx="16" ry="6" transform="rotate(-8 192 467)"/>
<ellipse cx="222" cy="471" rx="16" ry="6" transform="rotate(-2 222 471)"/>
<ellipse cx="394" cy="430" rx="16" ry="6" transform="rotate(55 394 430)"/>
<ellipse cx="374" cy="447" rx="16" ry="6" transform="rotate(35 374 447)"/>
<ellipse cx="349" cy="459" rx="16" ry="6" transform="rotate(20 349 459)"/>
<ellipse cx="320" cy="467" rx="16" ry="6" transform="rotate(8 320 467)"/>
<ellipse cx="290" cy="471" rx="16" ry="6" transform="rotate(2 290 471)"/>
</g>
</g>

<rect x="16" y="16" width="480" height="480" rx="110" fill="none" stroke="#170b2e" stroke-width="5"/>
<rect x="24" y="24" width="464" height="464" rx="102" fill="none" stroke="#f6d876" stroke-width="1.2" opacity="0.35"/>
</svg>
