<svg viewBox="0 0 512 512" width="512" height="512" role="img" xmlns="http://www.w3.org/2000/svg">
<title>Mythos logo — iteration 3</title>
<desc>A winged violet chess knight — a Pegasus — with golden wings and a glowing eye, on a deep amethyst circular badge with a chessboard background, crescent moon and gold ring.</desc>
<defs>
<radialGradient id="bg" cx="50%" cy="42%" r="68%">
<stop offset="0%" stop-color="#4a2680"/>
<stop offset="52%" stop-color="#2e1758"/>
<stop offset="100%" stop-color="#160b30"/>
</radialGradient>
<linearGradient id="knight" x1="0" y1="0" x2="0" y2="1">
<stop offset="0%" stop-color="#d7aaff"/>
<stop offset="45%" stop-color="#b06bff"/>
<stop offset="100%" stop-color="#7a3fd4"/>
</linearGradient>
<linearGradient id="wing" x1="0" y1="0" x2="0" y2="1">
<stop offset="0%" stop-color="#fbe9a9"/>
<stop offset="55%" stop-color="#d8a63c"/>
<stop offset="100%" stop-color="#a3781f"/>
</linearGradient>
<linearGradient id="ring" x1="0" y1="0" x2="1" y2="1">
<stop offset="0%" stop-color="#f8dc7d"/>
<stop offset="50%" stop-color="#c9962f"/>
<stop offset="100%" stop-color="#8a6414"/>
</linearGradient>
<radialGradient id="vig" cx="50%" cy="50%" r="50%">
<stop offset="60%" stop-color="#160b30" stop-opacity="0"/>
<stop offset="100%" stop-color="#0d0620" stop-opacity="0.9"/>
</radialGradient>
<pattern id="board" width="128" height="128" patternUnits="userSpaceOnUse">
<rect x="0" y="0" width="64" height="64" fill="#cbb6f2" fill-opacity="0.10"/>
<rect x="64" y="64" width="64" height="64" fill="#cbb6f2" fill-opacity="0.10"/>
</pattern>
<clipPath id="badge"><circle cx="256" cy="256" r="228"/></clipPath>
</defs>

<g clip-path="url(#badge)">
<circle cx="256" cy="256" r="228" fill="url(#bg)"/>
<rect x="28" y="28" width="456" height="456" fill="url(#board)"/>
<path d="M 150,110 A 28,28 0 1 0 150,166 A 22,22 0 0 1 150,110 Z" fill="#f6d876" opacity="0.7"/>
<g fill="#f6d876">
<path d="M330,92 L332,99 L339,101 L332,103 L330,110 L328,103 L321,101 L328,99 Z" opacity="0.85"/>
<path d="M95,230 L96.4,235 L101,236 L96.4,237 L95,242 L93.6,237 L89,236 L93.6,235 Z" opacity="0.7"/>
<circle cx="210" cy="98" r="2.4" opacity="0.7"/>
<circle cx="322" cy="104" r="1.8" opacity="0.6"/>
<circle cx="410" cy="300" r="2" opacity="0.55"/>
<circle cx="140" cy="350" r="1.8" opacity="0.5"/>
</g>
<circle cx="256" cy="256" r="228" fill="url(#vig)"/>
<ellipse cx="256" cy="410" rx="130" ry="24" fill="#b06bff" opacity="0.18"/>
</g>

<g fill="url(#wing)" stroke="#2a1150" stroke-width="1" stroke-linejoin="round">
<path d="M 338,258 C 342,200 375,150 408,126 C 398,168 378,218 360,262 Z" opacity="1"/>
<path d="M 341,268 C 355,225 390,190 428,170 C 414,208 388,242 364,272 Z" opacity="0.95"/>
<path d="M 344,278 C 366,250 400,228 438,216 C 420,244 392,264 368,284 Z" opacity="0.9"/>
<path d="M 347,288 C 372,272 405,258 442,256 C 422,274 394,287 374,294 Z" opacity="0.85"/>
</g>

<rect x="158" y="387" width="200" height="14" rx="7" fill="url(#ring)" stroke="#2a1150" stroke-width="1"/>

<g transform="translate(60,100) scale(7.4)">
<g transform="translate(0,0.3)" fill="url(#knight)" stroke="#2a1150" stroke-width="0.6" stroke-linecap="round" stroke-linejoin="round">
<path d="M 22,10 C 32.5,11 38.5,18 38,39 L 15,39 C 15,30 25,32.5 23,18"/>
<path d="M 24,18 C 24.38,20.91 18.45,25.37 16,27 C 13,29 13.18,31.34 11,31 C 9.958,30.06 12.41,27.96 11,28 C 10,28 11.19,29.23 10,30 C 9,30 5.997,31 6,26 C 6,24 12,14 12,14 C 12,14 13.89,12.1 14,10.5 C 13.27,9.506 13.5,8.5 13.5,7.5 C 14.5,6.5 16.5,10 16.5,10 L 18.5,10 C 18.5,10 19.28,8.008 21,7 C 22,7 22,10 22,10"/>
<path d="M 15 15.5 A 0.5 1.5 0 1 1 14,15.5 A 0.5 1.5 0 1 1 15 15.5 z" transform="matrix(0.866,0.5,-0.5,0.866,9.693,-5.173)" fill="#1b0b33" stroke="#1b0b33"/>
</g>
</g>

<circle cx="130.3" cy="288.7" r="9" fill="#f6d876" opacity="0.3"/>
<circle cx="130.3" cy="288.7" r="4.5" fill="#f6d876"/>

<circle cx="256" cy="256" r="230" fill="none" stroke="#0d0620" stroke-width="6"/>
<circle cx="256" cy="256" r="226" fill="none" stroke="url(#ring)" stroke-width="12"/>
<circle cx="256" cy="256" r="206" fill="none" stroke="#f6d876" stroke-width="1.5" opacity="0.5"/>
</svg>
