<svg viewBox="0 0 800 320" width="800" height="320" role="img" xmlns="http://www.w3.org/2000/svg">
<title>Mythos logo — iteration 4</title>
<desc>A rectangular banner: a winged violet chess knight with golden wings on a dark amethyst chessboard, next to the golden word MYTHOS.</desc>
<defs>
<radialGradient id="bg" cx="40%" cy="42%" r="80%">
<stop offset="0%" stop-color="#4a2680"/>
<stop offset="55%" stop-color="#2e1758"/>
<stop offset="100%" stop-color="#160b30"/>
</radialGradient>
<linearGradient id="knight" x1="0" y1="0" x2="0" y2="1">
<stop offset="0%" stop-color="#d7aaff"/>
<stop offset="45%" stop-color="#b06bff"/>
<stop offset="100%" stop-color="#7a3fd4"/>
</linearGradient>
<linearGradient id="wing" x1="0" y1="0" x2="0" y2="1">
<stop offset="0%" stop-color="#fbe9a9"/>
<stop offset="55%" stop-color="#d8a63c"/>
<stop offset="100%" stop-color="#a3781f"/>
</linearGradient>
<linearGradient id="ring" x1="0" y1="0" x2="1" y2="1">
<stop offset="0%" stop-color="#f8dc7d"/>
<stop offset="50%" stop-color="#c9962f"/>
<stop offset="100%" stop-color="#8a6414"/>
</linearGradient>
<radialGradient id="vig" cx="50%" cy="48%" r="72%">
<stop offset="55%" stop-color="#160b30" stop-opacity="0"/>
<stop offset="100%" stop-color="#0d0620" stop-opacity="0.85"/>
</radialGradient>
<pattern id="board" width="160" height="160" patternUnits="userSpaceOnUse">
<rect x="0" y="0" width="80" height="80" fill="#cbb6f2" fill-opacity="0.09"/>
<rect x="80" y="80" width="80" height="80" fill="#cbb6f2" fill-opacity="0.09"/>
</pattern>
<clipPath id="frame"><rect x="6" y="6" width="788" height="308" rx="18"/></clipPath>
</defs>

<g clip-path="url(#frame)">
<rect x="6" y="6" width="788" height="308" fill="url(#bg)"/>
<rect x="6" y="6" width="788" height="308" fill="url(#board)"/>
<path d="M 52,58 A 20,20 0 1 0 52,98 A 16,16 0 0 1 52,58 Z" fill="#f6d876" opacity="0.65"/>
<g fill="#f6d876">
<path d="M700,68 L702,75 L709,77 L702,79 L700,86 L698,79 L691,77 L698,75 Z" opacity="0.8"/>
<path d="M390,262 L391.4,267 L396,268 L391.4,269 L390,274 L388.6,269 L384,268 L388.6,267 Z" opacity="0.6"/>
<circle cx="420" cy="70" r="2.2" opacity="0.6"/>
<circle cx="742" cy="238" r="2" opacity="0.5"/>
<circle cx="240" cy="56" r="1.8" opacity="0.6"/>
</g>
<rect x="6" y="6" width="788" height="308" fill="url(#vig)"/>
<ellipse cx="230" cy="284" rx="120" ry="16" fill="#b06bff" opacity="0.15"/>
</g>

<g fill="url(#wing)" stroke="#2a1150" stroke-width="1" stroke-linejoin="round">
<path d="M 295,185 C 298,145 320,110 345,90 C 337,120 322,155 310,188 Z" opacity="1"/>
<path d="M 298,193 C 308,162 332,138 360,124 C 349,151 330,175 315,196 Z" opacity="0.95"/>
<path d="M 301,200 C 316,180 340,164 368,156 C 353,176 332,190 318,204 Z" opacity="0.9"/>
<path d="M 303,207 C 320,196 343,186 372,185 C 356,198 335,207 320,212 Z" opacity="0.85"/>
</g>

<rect x="164" y="260" width="146" height="10" rx="5" fill="url(#ring)" stroke="#2a1150" stroke-width="1"/>

<g transform="translate(88,40) scale(5.6)">
<g transform="translate(0,0.3)" fill="url(#knight)" stroke="#2a1150" stroke-width="0.6" stroke-linecap="round" stroke-linejoin="round">
<path d="M 22,10 C 32.5,11 38.5,18 38,39 L 15,39 C 15,30 25,32.5 23,18"/>
<path d="M 24,18 C 24.38,20.91 18.45,25.37 16,27 C 13,29 13.18,31.34 11,31 C 9.958,30.06 12.41,27.96 11,28 C 10,28 11.19,29.23 10,30 C 9,30 5.997,31 6,26 C 6,24 12,14 12,14 C 12,14 13.89,12.1 14,10.5 C 13.27,9.506 13.5,8.5 13.5,7.5 C 14.5,6.5 16.5,10 16.5,10 L 18.5,10 C 18.5,10 19.28,8.008 21,7 C 22,7 22,10 22,10"/>
<path d="M 15 15.5 A 0.5 1.5 0 1 1 14,15.5 A 0.5 1.5 0 1 1 15 15.5 z" transform="matrix(0.866,0.5,-0.5,0.866,9.693,-5.173)" fill="#1b0b33" stroke="#1b0b33"/>
</g>
</g>

<circle cx="138.4" cy="182.8" r="7" fill="#f6d876" opacity="0.3"/>
<circle cx="138.4" cy="182.8" r="3.5" fill="#f6d876"/>

<text x="580" y="190" text-anchor="middle" font-family="Georgia, 'Times New Roman', serif" font-weight="bold" font-size="80" letter-spacing="6" fill="url(#wing)" stroke="#2a1150" stroke-width="1.5">MYTHOS</text>
<text x="580" y="235" text-anchor="middle" font-family="Georgia, 'Times New Roman', serif" font-size="19" letter-spacing="10" fill="#f6d876" opacity="0.85">CHESS ENGINE</text>

<rect x="6" y="6" width="788" height="308" rx="18" fill="none" stroke="#0d0620" stroke-width="6"/>
<rect x="9" y="9" width="782" height="302" rx="16" fill="none" stroke="url(#ring)" stroke-width="5"/>
<rect x="20" y="20" width="760" height="280" rx="12" fill="none" stroke="#f6d876" stroke-width="1.2" opacity="0.4"/>
</svg>
